<svg xmlns="http://www.w3.org/2000/svg" viewBox="0 0 32 40" x="0px" y="0px"><title>ui4</title><g data-name="25"><path d="M26,13H18a3,3,0,0,1-3-3V2h2v8a1,1,0,0,0,1,1h8Z"/><path d="M24,31H8a3,3,0,0,1-3-3V4A3,3,0,0,1,8,1h8.38L27,10.55V28A3,3,0,0,1,24,31ZM8,3A1,1,0,0,0,7,4V28a1,1,0,0,0,1,1H24a1,1,0,0,0,1-1V11.45L15.62,3Z"/><rect x="10.34" y="20" width="11.31" height="2" transform="translate(-10.16 17.46) rotate(-45)"/><rect x="15" y="15.34" width="2" height="11.31" transform="translate(-10.16 17.46) rotate(-45)"/></g><text x="0" y="47" fill="#000000" font-size="5px" font-weight="bold" font-family="'Helvetica Neue', Helvetica, Arial-Unicode, Arial, Sans-serif">Created by ponizeothox</text><text x="0" y="52" fill="#000000" font-size="5px" font-weight="bold" font-family="'Helvetica Neue', Helvetica, Arial-Unicode, Arial, Sans-serif">from the Noun Project</text></svg>